<svg width="15" height="14" viewBox="0 0 15 14" fill="none" xmlns="http://www.w3.org/2000/svg">
<path d="M9.90625 5.6875L6.69609 8.75L5.09375 7.21875" stroke="#389E0D" stroke-width="0.875" stroke-linecap="round" stroke-linejoin="round"/>
<path fill-rule="evenodd" clip-rule="evenodd" d="M2.6875 7C2.6875 4.34213 4.84213 2.1875 7.5 2.1875C9.46979 2.1875 11.1632 3.37093 11.9079 5.06559L12.1171 4.85645L12.569 4.41805C11.6282 2.57472 9.71152 1.3125 7.5 1.3125C4.35888 1.3125 1.8125 3.85888 1.8125 7C1.8125 9.20793 3.07063 11.122 4.90909 12.0644L5.56559 11.4079C3.87093 10.6632 2.6875 8.96979 2.6875 7Z" fill="#389E0D"/>
<path d="M9.40714 13.6927H7.73526C7.6559 13.6927 7.57979 13.6612 7.52368 13.605C7.46756 13.5489 7.43604 13.4728 7.43604 13.3935V11.7216C7.4359 11.6827 7.44343 11.6442 7.45819 11.6083C7.47295 11.5723 7.49466 11.5397 7.52206 11.5121L12.0104 7.02384C12.0382 6.99556 12.0714 6.97311 12.108 6.95779C12.1446 6.94246 12.1839 6.93457 12.2235 6.93457C12.2632 6.93457 12.3025 6.94246 12.3391 6.95779C12.3757 6.97311 12.4089 6.99556 12.4367 7.02384L14.1049 8.69198C14.1332 8.71983 14.1556 8.75301 14.1709 8.78961C14.1863 8.82621 14.1942 8.8655 14.1942 8.90518C14.1942 8.94486 14.1863 8.98414 14.1709 9.02074C14.1556 9.05734 14.1332 9.09053 14.1049 9.11837L9.6166 13.6067C9.58906 13.6341 9.55638 13.6558 9.52044 13.6705C9.4845 13.6853 9.446 13.6928 9.40714 13.6927V13.6927Z" stroke="#606375" stroke-width="0.598439" stroke-linecap="round" stroke-linejoin="round"/>
<path d="M11.0249 8.00684L13.1194 10.1014" stroke="#606375" stroke-width="0.598439" stroke-linecap="round" stroke-linejoin="round"/>
</svg>
