<svg width="16" height="18" viewBox="0 0 16 18" fill="none" xmlns="http://www.w3.org/2000/svg">
<rect y="1" width="16" height="3" rx="1" fill="#0F73C1"/>
<path fill-rule="evenodd" clip-rule="evenodd" d="M2 6H14V16C14 17.1046 13.1046 18 12 18H4C2.89543 18 2 17.1046 2 16V6ZM5 9C5 8.44772 5.44772 8 6 8C6.55228 8 7 8.44772 7 9V15C7 15.5523 6.55228 16 6 16C5.44772 16 5 15.5523 5 15V9ZM10 8C9.44772 8 9 8.44772 9 9V15C9 15.5523 9.44772 16 10 16C10.5523 16 11 15.5523 11 15V9C11 8.44772 10.5523 8 10 8Z" fill="#0F73C1"/>
<rect x="5" width="6" height="2" rx="1" fill="#0F73C1"/>
</svg>
