<svg width="14" height="14" viewBox="0 0 14 14" fill="none" xmlns="http://www.w3.org/2000/svg">
<path fill-rule="evenodd" clip-rule="evenodd" d="M5 0.5C5 0.223858 5.22386 0 5.5 0H9C9.27614 0 9.5 0.223858 9.5 0.5C9.5 0.776142 9.27614 1 9 1H5.5C5.22386 1 5 0.776142 5 0.5Z" fill="#9DB4BF"/>
<path fill-rule="evenodd" clip-rule="evenodd" d="M7 4C7.27614 4 7.5 4.22386 7.5 4.5V7.5H10C10.2761 7.5 10.5 7.72386 10.5 8C10.5 8.27614 10.2761 8.5 10 8.5H7C6.72386 8.5 6.5 8.27614 6.5 8V4.5C6.5 4.22386 6.72386 4 7 4Z" fill="#9DB4BF"/>
<path fill-rule="evenodd" clip-rule="evenodd" d="M7 13C9.76142 13 12 10.7614 12 8C12 5.23858 9.76142 3 7 3C4.23858 3 2 5.23858 2 8C2 10.7614 4.23858 13 7 13ZM7 14C10.3137 14 13 11.3137 13 8C13 4.68629 10.3137 2 7 2C3.68629 2 1 4.68629 1 8C1 11.3137 3.68629 14 7 14Z" fill="#9DB4BF"/>
<path fill-rule="evenodd" clip-rule="evenodd" d="M11.6464 1.64645C11.8417 1.45118 12.1583 1.45118 12.3536 1.64645L13.8536 3.14645C14.0488 3.34171 14.0488 3.65829 13.8536 3.85355C13.6583 4.04882 13.3417 4.04882 13.1464 3.85355L11.6464 2.35355C11.4512 2.15829 11.4512 1.84171 11.6464 1.64645Z" fill="#9DB4BF"/>
<path fill-rule="evenodd" clip-rule="evenodd" d="M7.34961 0C7.62575 0 7.84961 0.223858 7.84961 0.5V2.5C7.84961 2.77614 7.62575 3 7.34961 3C7.07347 3 6.84961 2.77614 6.84961 2.5V0.5C6.84961 0.223858 7.07347 0 7.34961 0Z" fill="#9DB4BF"/>
<path fill-rule="evenodd" clip-rule="evenodd" d="M12.8536 2.64645C13.0488 2.84171 13.0488 3.15829 12.8536 3.35355L11.8536 4.35355C11.6583 4.54882 11.3417 4.54882 11.1464 4.35355C10.9512 4.15829 10.9512 3.84171 11.1464 3.64645L12.1464 2.64645C12.3417 2.45118 12.6583 2.45118 12.8536 2.64645Z" fill="#9DB4BF"/>
</svg>
