<svg width="14" height="14" viewBox="0 0 14 14" fill="none" xmlns="http://www.w3.org/2000/svg">
<path fill-rule="evenodd" clip-rule="evenodd" d="M2.23901 2.72394C2.23901 2.45612 2.45218 2.23901 2.71513 2.23901H11.2852C11.5481 2.23901 11.7613 2.45612 11.7613 2.72394V13.3924C11.7613 13.6602 11.5481 13.8773 11.2852 13.8773H2.71513C2.45218 13.8773 2.23901 13.6602 2.23901 13.3924V2.72394ZM3.19124 3.20887V12.9075H10.8091V3.20887H3.19124Z" fill="#9A9DA9"/>
<path fill-rule="evenodd" clip-rule="evenodd" d="M0.123047 2.76803C0.123047 2.47586 0.342977 2.23901 0.614275 2.23901H13.3862C13.6575 2.23901 13.8774 2.47586 13.8774 2.76803C13.8774 3.0602 13.6575 3.29704 13.3862 3.29704H0.614275C0.342977 3.29704 0.123047 3.0602 0.123047 2.76803Z" fill="#9A9DA9"/>
<path fill-rule="evenodd" clip-rule="evenodd" d="M3.297 0.652062C3.297 0.359895 3.53385 0.123047 3.82601 0.123047H10.1742C10.4664 0.123047 10.7032 0.359895 10.7032 0.652062C10.7032 0.944229 10.4664 1.18108 10.1742 1.18108H3.82601C3.53385 1.18108 3.297 0.944229 3.297 0.652062Z" fill="#9A9DA9"/>
<path fill-rule="evenodd" clip-rule="evenodd" d="M5.56362 5.03467C5.85579 5.03467 6.09264 5.27152 6.09264 5.56368V10.8538C6.09264 11.146 5.85579 11.3828 5.56362 11.3828C5.27145 11.3828 5.03461 11.146 5.03461 10.8538V5.56368C5.03461 5.27152 5.27145 5.03467 5.56362 5.03467Z" fill="#9A9DA9"/>
<path fill-rule="evenodd" clip-rule="evenodd" d="M8.5115 5.03467C8.80367 5.03467 9.04051 5.27152 9.04051 5.56368V10.8538C9.04051 11.146 8.80367 11.3828 8.5115 11.3828C8.21933 11.3828 7.98248 11.146 7.98248 10.8538V5.56368C7.98248 5.27152 8.21933 5.03467 8.5115 5.03467Z" fill="#9A9DA9"/>
</svg>
