<svg width="15" height="12" viewBox="0 0 15 12" fill="none" xmlns="http://www.w3.org/2000/svg">
<path d="M14.4809 6.2122L14.5934 5.9999L14.4809 5.78759C13.8397 4.49385 12.8493 3.39873 11.6182 2.62213C10.3872 1.84552 8.96285 1.41736 7.50117 1.38451C6.37731 1.38847 5.26929 1.64582 4.26211 2.13682L2.21836 0.124512L1.55273 0.779896L3.42773 2.62605L4.5668 3.74759L5.89805 5.07682L6.60117 5.77374L7.7543 6.90913L8.46211 7.60143L9.80742 8.92605L10.7449 9.8722L12.7793 11.8799L13.4449 11.2245L11.5699 9.37836C12.7991 8.5853 13.8013 7.49522 14.4809 6.2122ZM8.41055 6.2122L7.27617 5.09528C7.35036 5.08177 7.42573 5.07559 7.50117 5.07682C7.74981 5.07682 7.98827 5.17407 8.16408 5.34718C8.3399 5.52029 8.43867 5.75508 8.43867 5.9999C8.43684 6.07448 8.42741 6.1487 8.41055 6.22143V6.2122ZM10.4684 8.23836L9.11836 6.92297C9.31985 6.57171 9.39894 6.16514 9.34354 5.76544C9.28814 5.36573 9.1013 4.9949 8.81159 4.70964C8.52188 4.42439 8.14524 4.24042 7.73929 4.18587C7.33334 4.13132 6.92042 4.2092 6.56367 4.40759L5.21836 3.07836C5.94051 2.54508 6.83378 2.28618 7.73419 2.34918C8.6346 2.41219 9.48172 2.79288 10.12 3.42135C10.7583 4.04982 11.1449 4.8839 11.2089 5.77046C11.2729 6.65702 11.01 7.53655 10.4684 8.24759V8.23836ZM11.5887 8.23836C11.9812 7.54893 12.1873 6.7718 12.1873 5.98143C12.1873 5.19106 11.9812 4.41394 11.5887 3.72451C12.3813 4.3499 13.0407 5.12313 13.5293 5.9999C13.0387 6.87003 12.3794 7.63685 11.5887 8.25682V8.23836Z" fill="#B2B5C2"/>
<path d="M8.97695 9.39217C8.2884 9.68187 7.52752 9.76197 6.79233 9.62215C6.05713 9.48234 5.38127 9.12902 4.8518 8.6077C4.32233 8.08638 3.96349 7.42092 3.8215 6.69703C3.6795 5.97315 3.76086 5.22398 4.05508 4.54602L3.35664 3.85832C2.99022 4.53717 2.80331 5.29594 2.81314 6.06464C2.82297 6.83335 3.02923 7.58724 3.41289 8.25678C2.6222 7.63681 1.96285 6.87 1.47227 5.99986C1.95011 5.1637 2.58664 4.42571 3.34727 3.82602L2.65352 3.16602C1.7733 3.8922 1.04834 4.78328 0.520703 5.78755L0.408203 5.99986L0.520703 6.21217C1.16191 7.50591 2.15225 8.60102 3.38331 9.37763C4.61438 10.1542 6.03871 10.5824 7.50039 10.6152C8.29801 10.6142 9.08997 10.4832 9.84414 10.2276L8.97695 9.39217Z" fill="#B2B5C2"/>
</svg>
