<svg width="12" height="12" viewBox="0 0 12 12" fill="none" xmlns="http://www.w3.org/2000/svg">
​​​​​​​<circle cx="6" cy="6" r="6" fill="#B2B5C2"/>
<path d="M5.08005 6.81601C5.08005 6.54934 5.13605 6.32534 5.24805 6.14401C5.36005 5.96267 5.55205 5.77334 5.82405 5.57601C6.06405 5.40534 6.23471 5.25867 6.33605 5.13601C6.44271 5.00801 6.49605 4.85867 6.49605 4.68801C6.49605 4.51734 6.43205 4.38934 6.30405 4.30401C6.18138 4.21334 6.00805 4.16801 5.78405 4.16801C5.56005 4.16801 5.33871 4.20267 5.12005 4.27201C4.90138 4.34134 4.67738 4.43467 4.44805 4.55201L4.02405 3.69601C4.28538 3.55201 4.56805 3.43467 4.87205 3.34401C5.17605 3.25334 5.50938 3.20801 5.87205 3.20801C6.42671 3.20801 6.85605 3.34134 7.16005 3.60801C7.46938 3.87467 7.62405 4.21334 7.62405 4.62401C7.62405 4.84267 7.58938 5.03201 7.52005 5.19201C7.45071 5.35201 7.34671 5.50134 7.20805 5.64001C7.06938 5.77334 6.89605 5.91734 6.68805 6.07201C6.53338 6.18401 6.41338 6.28001 6.32805 6.36001C6.24271 6.44001 6.18405 6.51734 6.15205 6.59201C6.12538 6.66667 6.11205 6.76001 6.11205 6.87201V7.10401H5.08005V6.81601ZM4.95205 8.44001C4.95205 8.19467 5.01871 8.02401 5.15205 7.92801C5.28538 7.82667 5.44805 7.77601 5.64005 7.77601C5.82671 7.77601 5.98671 7.82667 6.12005 7.92801C6.25338 8.02401 6.32005 8.19467 6.32005 8.44001C6.32005 8.67467 6.25338 8.84534 6.12005 8.95201C5.98671 9.05334 5.82671 9.10401 5.64005 9.10401C5.44805 9.10401 5.28538 9.05334 5.15205 8.95201C5.01871 8.84534 4.95205 8.67467 4.95205 8.44001Z" fill="white"/>
</svg>