<svg width="16" height="16" viewBox="0 0 16 16" fill="none" xmlns="http://www.w3.org/2000/svg">
<path fill-rule="evenodd" clip-rule="evenodd" d="M2.02846 8.10606C2.10043 6.29947 3.06937 4.56615 4.7523 3.59451C7.36109 2.08832 10.6972 2.98222 12.2033 5.59101C13.0298 7.02242 12.9935 8.52768 12.5002 9.80985C12.0101 11.0836 11.0644 12.1533 10.0364 12.7468L9.69548 12.1564C10.5866 11.6419 11.429 10.6951 11.8638 9.56503C12.2953 8.44342 12.3205 7.15764 11.6129 5.93192C10.295 3.64924 7.37589 2.86707 5.09321 4.18498C3.62125 5.03481 2.77279 6.55048 2.70974 8.1332L2.02846 8.10606Z" fill="#1582D8"/>
<path fill-rule="evenodd" clip-rule="evenodd" d="M1.90343 8.10094C1.97703 6.25331 2.96805 4.48008 4.68967 3.4861C7.35825 1.9454 10.7708 2.85978 12.3115 5.52836C13.1597 6.9975 13.1213 8.54301 12.6167 9.85458C12.1165 11.1546 11.1519 12.2469 10.0988 12.8549C10.039 12.8894 9.96253 12.869 9.92801 12.8092L9.5871 12.2187C9.55258 12.1589 9.57307 12.0825 9.63285 12.0479C10.4988 11.548 11.3224 10.6237 11.747 9.51999C12.1672 8.42786 12.1904 7.1823 11.5045 5.99427C10.2211 3.77137 7.37847 3.00969 5.15558 4.29308C3.72229 5.12059 2.89592 6.59636 2.83451 8.13803C2.83319 8.17115 2.81876 8.2024 2.79441 8.22489C2.77005 8.24738 2.73776 8.25927 2.70463 8.25795L2.02335 8.23081C1.95437 8.22806 1.90068 8.16992 1.90343 8.10094ZM2.15967 7.98604L2.59127 8.00324C2.69449 6.42492 3.55871 4.92636 5.03058 4.07657C7.37305 2.72415 10.3686 3.5268 11.721 5.86927C12.4504 7.13266 12.4232 8.45868 11.9804 9.60976C11.5529 10.7209 10.7409 11.6593 9.86517 12.2003L10.0812 12.5744C11.0425 11.9841 11.9206 10.9675 12.3834 9.76481C12.8654 8.51205 12.8996 7.04703 12.095 5.65336C10.6233 3.10436 7.36367 2.23094 4.81467 3.70261C3.20922 4.62952 2.26863 6.26583 2.15967 7.98604Z" fill="#1582D8"/>
<path fill-rule="evenodd" clip-rule="evenodd" d="M1.75646 8.09492C1.832 6.1988 2.8491 4.37841 4.61645 3.35803C7.35568 1.77653 10.8586 2.71512 12.4401 5.45436C13.314 6.9681 13.2732 8.56117 12.7552 9.90749C12.2431 11.2387 11.2561 12.3575 10.1733 12.9827C10.0428 13.058 9.87603 13.0133 9.80072 12.8829L9.45981 12.2924C9.3845 12.162 9.42919 11.9952 9.55963 11.9199C10.396 11.437 11.1971 10.5394 11.6098 9.4668C12.0166 8.4095 12.0374 7.2115 11.3772 6.06799C10.1346 3.91576 7.38232 3.17828 5.23009 4.42088C3.8425 5.222 3.04224 6.65063 2.98276 8.14377C2.97988 8.21604 2.94841 8.28422 2.89527 8.33329C2.84213 8.38235 2.77167 8.4083 2.69939 8.40543L2.01812 8.37829C1.86761 8.37229 1.75047 8.24542 1.75646 8.09492ZM2.31951 7.8444L2.45596 7.84984C2.60388 6.27745 3.48571 4.79816 4.95736 3.9485C7.37048 2.55528 10.4564 3.38214 11.8496 5.79527C12.6047 7.10319 12.5751 8.47675 12.1189 9.66266C11.6996 10.7525 10.9207 11.681 10.0643 12.2485L10.1326 12.3668C11.0157 11.7839 11.8156 10.8306 12.2461 9.71163C12.7148 8.49362 12.7466 7.07616 11.9677 5.72708C10.5368 3.24874 7.36752 2.39953 4.88918 3.83041C3.37535 4.70442 2.46936 6.22715 2.31951 7.8444Z" fill="#1582D8"/>
<path fill-rule="evenodd" clip-rule="evenodd" d="M1.63143 8.08979C1.7086 6.15265 2.74777 4.29234 4.55382 3.24962C7.35284 1.63361 10.9322 2.59268 12.5482 5.3917C13.4439 6.9432 13.401 8.57652 12.8717 9.95222C12.3495 11.3097 11.3436 12.4511 10.2356 13.0908C10.0454 13.2006 9.80216 13.1355 9.69233 12.9452L9.35142 12.3548C9.24159 12.1645 9.30677 11.9213 9.497 11.8115C10.3082 11.3431 11.0905 10.468 11.493 9.42176C11.8884 8.39397 11.9073 7.23619 11.2688 6.13034C10.0607 4.03789 7.38491 3.3209 5.29246 4.52898C3.94352 5.30778 3.16538 6.69652 3.10753 8.14859C3.10333 8.25399 3.05744 8.35341 2.97994 8.42497C2.90244 8.49653 2.79969 8.53437 2.69429 8.53017L2.01301 8.50303C1.79352 8.49429 1.62269 8.30927 1.63143 8.08979ZM4.67882 3.46613C2.95017 4.46417 1.95513 6.24464 1.88123 8.09974C1.87798 8.18126 1.94144 8.24998 2.02296 8.25323L2.70424 8.28037C2.74339 8.28193 2.78155 8.26787 2.81034 8.2413C2.83912 8.21472 2.85617 8.17779 2.85773 8.13864C2.91885 6.60443 3.74121 5.13592 5.16746 4.31247C7.37948 3.03536 10.2082 3.79332 11.4853 6.00534C12.1673 7.1865 12.1445 8.42473 11.7263 9.51153C11.3035 10.6105 10.4834 11.5306 9.622 12.028C9.55134 12.0688 9.52714 12.1591 9.56793 12.2298L9.90884 12.8202C9.94963 12.8909 10.04 12.9151 10.1106 12.8743C11.1684 12.2636 12.1364 11.1673 12.6384 9.86245C13.1451 8.54551 13.1838 6.99269 12.3317 5.5167C10.7847 2.83726 7.35826 1.91915 4.67882 3.46613ZM2.19491 7.83272C2.34834 6.17682 3.27611 4.61715 4.82655 3.722C7.36468 2.25661 10.6104 3.1263 12.0758 5.66443C12.8765 7.05122 12.8426 8.50892 12.3627 9.75636C11.9227 10.8999 11.1059 11.8739 10.2013 12.471C10.1726 12.49 10.1373 12.4962 10.1037 12.4883C10.0702 12.4804 10.0414 12.459 10.0242 12.4292L9.95591 12.3109C9.92288 12.2537 9.94006 12.1806 9.99511 12.1442C10.8302 11.5908 11.5922 10.6829 12.0021 9.61763C12.447 8.46116 12.4746 7.12784 11.7412 5.85761C10.3825 3.50427 7.37307 2.6979 5.01973 4.0566C3.58462 4.88516 2.72457 6.32759 2.58027 7.86139C2.57405 7.92752 2.51721 7.97723 2.45085 7.97459L2.3144 7.96915C2.28014 7.96779 2.24794 7.9524 2.22534 7.92661C2.20275 7.90081 2.19175 7.86686 2.19491 7.83272Z" fill="#1582D8"/>
<path fill-rule="evenodd" clip-rule="evenodd" d="M1.98278 8.34236L0.619141 5.98047L1.20961 5.63956L2.40279 7.70621L4.46945 6.51303L4.81036 7.1035L2.44847 8.46714C2.28541 8.56128 2.07692 8.50541 1.98278 8.34236Z" fill="#1582D8"/>
<path fill-rule="evenodd" clip-rule="evenodd" d="M0.511719 6.04282C0.477201 5.98304 0.497685 5.90659 0.557472 5.87207L1.14794 5.53116C1.20773 5.49664 1.28418 5.51713 1.3187 5.57691L2.44938 7.53531L4.40778 6.40463C4.46756 6.37011 4.54401 6.3906 4.57853 6.45038L4.91944 7.04086C4.95396 7.10064 4.93347 7.17709 4.87369 7.21161L2.5118 8.57525C2.28896 8.7039 2.00401 8.62755 1.87536 8.40471L0.511719 6.04282ZM0.790725 6.02608L2.09186 8.27971C2.15148 8.38298 2.28353 8.41836 2.3868 8.35874L4.64043 7.0576L4.42452 6.68364L2.46613 7.81432C2.40634 7.84884 2.32989 7.82835 2.29537 7.76857L1.16469 5.81017L0.790725 6.02608Z" fill="#1582D8"/>
<path fill-rule="evenodd" clip-rule="evenodd" d="M0.383434 6.11705C0.308122 5.9866 0.352816 5.81981 0.483259 5.7445L1.07373 5.40359C1.20417 5.32828 1.37097 5.37297 1.44628 5.50341L2.5031 7.33387L4.33356 6.27706C4.46401 6.20174 4.6308 6.24644 4.70612 6.37688L5.04703 6.96735C5.12234 7.0978 5.07764 7.26459 4.9472 7.33991L2.58531 8.70354C2.29182 8.87299 1.91652 8.77243 1.74707 8.47894L0.383434 6.11705ZM0.992175 6.08051L2.21945 8.20621C2.23828 8.23882 2.27997 8.24999 2.31259 8.23116L4.43828 7.00389L4.3701 6.8858L2.53964 7.94262C2.4092 8.01793 2.2424 7.97323 2.16709 7.84279L1.11027 6.01233L0.992175 6.08051Z" fill="#1582D8"/>
<path fill-rule="evenodd" clip-rule="evenodd" d="M0.275036 6.1794C0.165206 5.98917 0.230384 5.74593 0.420614 5.6361L1.01109 5.29519C1.20132 5.18536 1.44456 5.25054 1.55439 5.44077L2.54871 7.16298L4.27092 6.16866C4.46115 6.05883 4.70439 6.12401 4.81422 6.31424L5.15513 6.90471C5.26496 7.09494 5.19979 7.33818 5.00955 7.44801L2.64767 8.81165C2.29438 9.01562 1.84264 8.89457 1.63867 8.54129L0.275036 6.1794ZM0.545614 5.8526C0.474957 5.8934 0.450748 5.98375 0.491542 6.0544L1.85518 8.41629C1.99011 8.65 2.28896 8.73008 2.52267 8.59514L4.88455 7.23151C4.95521 7.19071 4.97942 7.10037 4.93863 7.02971L4.59772 6.43924C4.55692 6.36858 4.46658 6.34437 4.39592 6.38516L2.56546 7.44198C2.50567 7.4765 2.42922 7.45602 2.3947 7.39623L1.33788 5.56577C1.29709 5.49511 1.20674 5.4709 1.13609 5.51169L0.545614 5.8526ZM0.883777 6.14286C0.849259 6.08308 0.869743 6.00663 0.92953 5.97211L1.04762 5.90393C1.10741 5.86941 1.18386 5.8899 1.21838 5.94968L2.2752 7.78015C2.31599 7.8508 2.40634 7.87501 2.47699 7.83422L4.30746 6.7774C4.36724 6.74288 4.44369 6.76337 4.47821 6.82315L4.54639 6.94125C4.58091 7.00103 4.56043 7.07748 4.50064 7.112L2.37494 8.33927C2.28254 8.39262 2.16439 8.36096 2.11105 8.26856L0.883777 6.14286ZM2.29628 8.08939L2.29915 8.09436L2.30412 8.09149C2.3015 8.09081 2.29888 8.09011 2.29628 8.08939Z" fill="#1582D8"/>
</svg>
