<svg width="14" height="14" viewBox="0 0 14 14" fill="none" xmlns="http://www.w3.org/2000/svg">
<path d="M5.94328 0C5.60798 0 5.32136 0.237016 5.25696 0.566016L5.02317 1.76641C4.44864 1.98366 3.91739 2.28718 3.4509 2.67012L2.29973 2.27363C1.98263 2.16443 1.63374 2.29555 1.46574 2.58535L0.410276 4.41465C0.242976 4.70515 0.303865 5.07395 0.556565 5.29375L1.47942 6.09629C1.43142 6.39124 1.40012 6.6915 1.40012 7C1.40012 7.3085 1.43142 7.60876 1.47942 7.90371L0.556565 8.70625C0.303865 8.92605 0.242976 9.29485 0.410276 9.58535L1.46574 11.4146C1.63304 11.7051 1.98263 11.8362 2.29973 11.7277L3.4509 11.3313C3.91724 11.7139 4.44889 12.0164 5.02317 12.2336L5.25696 13.434C5.32136 13.763 5.60798 14 5.94328 14H8.05696C8.39225 14 8.67888 13.763 8.74328 13.434L8.97707 12.2336C9.5516 12.0163 10.0828 11.7128 10.5493 11.3299L11.7005 11.7264C12.0176 11.8356 12.3665 11.7051 12.5345 11.4146L13.59 9.58398C13.7573 9.29348 13.6964 8.92605 13.4437 8.70625L12.5208 7.90371C12.5688 7.60876 12.6001 7.3085 12.6001 7C12.6001 6.6915 12.5688 6.39124 12.5208 6.09629L13.4437 5.29375C13.6964 5.07395 13.7573 4.70515 13.59 4.41465L12.5345 2.58535C12.3672 2.29485 12.0176 2.16377 11.7005 2.27227L10.5493 2.66875C10.083 2.28606 9.55134 1.98356 8.97707 1.76641L8.74328 0.566016C8.67888 0.237016 8.39225 0 8.05696 0H5.94328ZM7.00012 4.2C8.54642 4.2 9.80012 5.4537 9.80012 7C9.80012 8.5463 8.54642 9.8 7.00012 9.8C5.45382 9.8 4.20012 8.5463 4.20012 7C4.20012 5.4537 5.45382 4.2 7.00012 4.2Z" fill="#1582D8"/>
</svg>
