<svg width="14" height="14" viewBox="0 0 14 14" fill="none" xmlns="http://www.w3.org/2000/svg">
<path fill-rule="evenodd" clip-rule="evenodd" d="M2.23926 2.7237C2.23926 2.45588 2.45242 2.23877 2.71537 2.23877H11.2854C11.5484 2.23877 11.7615 2.45588 11.7615 2.7237V13.3922C11.7615 13.66 11.5484 13.8771 11.2854 13.8771H2.71537C2.45242 13.8771 2.23926 13.66 2.23926 13.3922V2.7237ZM3.19148 3.20863V12.9072H10.8093V3.20863H3.19148Z" fill="#D82C15"/>
<path fill-rule="evenodd" clip-rule="evenodd" d="M2.11621 2.72395C2.11621 2.39044 2.38224 2.11621 2.71513 2.11621H11.2852C11.6181 2.11621 11.8841 2.39044 11.8841 2.72395V13.3924C11.8841 13.7259 11.6181 14.0002 11.2852 14.0002H2.71513C2.38224 14.0002 2.11621 13.7259 2.11621 13.3924V2.72395ZM2.71513 2.36182C2.52212 2.36182 2.36183 2.52182 2.36183 2.72395V13.3924C2.36183 13.5945 2.52212 13.7545 2.71513 13.7545H11.2852C11.4782 13.7545 11.6385 13.5945 11.6385 13.3924V2.72395C11.6385 2.52182 11.4782 2.36182 11.2852 2.36182H2.71513ZM3.06844 3.20888C3.06844 3.14105 3.12342 3.08607 3.19124 3.08607H10.8091C10.8769 3.08607 10.9319 3.14105 10.9319 3.20888V12.9075C10.9319 12.9753 10.8769 13.0303 10.8091 13.0303H3.19124C3.12342 13.0303 3.06844 12.9753 3.06844 12.9075V3.20888ZM3.31405 3.33169V12.7847H10.6863V3.33169H3.31405Z" fill="#D82C15"/>
<path fill-rule="evenodd" clip-rule="evenodd" d="M0.123047 2.76778C0.123047 2.47562 0.342977 2.23877 0.614275 2.23877H13.3862C13.6575 2.23877 13.8774 2.47562 13.8774 2.76778C13.8774 3.05995 13.6575 3.2968 13.3862 3.2968H0.614275C0.342977 3.2968 0.123047 3.05995 0.123047 2.76778Z" fill="#D82C15"/>
<path fill-rule="evenodd" clip-rule="evenodd" d="M0 2.76803C0 2.41677 0.266501 2.11621 0.614035 2.11621H13.386C13.7335 2.11621 14 2.41677 14 2.76803C14 3.11929 13.7335 3.41985 13.386 3.41985H0.614035C0.266501 3.41985 0 3.11929 0 2.76803ZM0.614035 2.36182C0.418974 2.36182 0.245614 2.53496 0.245614 2.76803C0.245614 3.0011 0.418974 3.17424 0.614035 3.17424H13.386C13.581 3.17424 13.7544 3.0011 13.7544 2.76803C13.7544 2.53496 13.581 2.36182 13.386 2.36182H0.614035Z" fill="#D82C15"/>
<path fill-rule="evenodd" clip-rule="evenodd" d="M3.29688 0.651818C3.29688 0.359651 3.53372 0.122803 3.82589 0.122803H10.1741C10.4662 0.122803 10.7031 0.359651 10.7031 0.651818C10.7031 0.943984 10.4662 1.18083 10.1741 1.18083H3.82589C3.53372 1.18083 3.29688 0.943984 3.29688 0.651818Z" fill="#D82C15"/>
<path fill-rule="evenodd" clip-rule="evenodd" d="M3.17383 0.651578C3.17383 0.291586 3.46566 -0.000244141 3.82565 -0.000244141H10.1738C10.5338 -0.000244141 10.8257 0.291587 10.8257 0.651578C10.8257 1.01157 10.5338 1.3034 10.1738 1.3034H3.82565C3.46566 1.3034 3.17383 1.01157 3.17383 0.651578ZM3.82565 0.24537C3.60131 0.24537 3.41944 0.427235 3.41944 0.651578C3.41944 0.87592 3.60131 1.05779 3.82565 1.05779H10.1738C10.3982 1.05779 10.58 0.87592 10.58 0.651578C10.58 0.427235 10.3982 0.24537 10.1738 0.24537H3.82565Z" fill="#D82C15"/>
<path fill-rule="evenodd" clip-rule="evenodd" d="M5.56319 5.03442C5.85536 5.03442 6.09221 5.27127 6.09221 5.56344V10.8536C6.09221 11.1458 5.85536 11.3826 5.56319 11.3826C5.27103 11.3826 5.03418 11.1458 5.03418 10.8536V5.56344C5.03418 5.27127 5.27103 5.03442 5.56319 5.03442Z" fill="#D82C15"/>
<path fill-rule="evenodd" clip-rule="evenodd" d="M4.91113 5.56369C4.91113 5.2037 5.20296 4.91187 5.56295 4.91187C5.92295 4.91187 6.21478 5.2037 6.21478 5.56369V10.8538C6.21478 11.2138 5.92295 11.5057 5.56295 11.5057C5.20296 11.5057 4.91113 11.2138 4.91113 10.8538V5.56369ZM5.56295 5.15748C5.33861 5.15748 5.15675 5.33934 5.15675 5.56369V10.8538C5.15675 11.0782 5.33861 11.26 5.56295 11.26C5.7873 11.26 5.96916 11.0782 5.96916 10.8538V5.56369C5.96916 5.33934 5.7873 5.15748 5.56295 5.15748Z" fill="#D82C15"/>
<path fill-rule="evenodd" clip-rule="evenodd" d="M8.51144 5.03442C8.8036 5.03442 9.04045 5.27127 9.04045 5.56344V10.8536C9.04045 11.1458 8.8036 11.3826 8.51144 11.3826C8.21927 11.3826 7.98242 11.1458 7.98242 10.8536V5.56344C7.98242 5.27127 8.21927 5.03442 8.51144 5.03442Z" fill="#D82C15"/>
<path fill-rule="evenodd" clip-rule="evenodd" d="M7.85938 5.5632C7.85938 5.20321 8.15121 4.91138 8.5112 4.91138C8.87119 4.91138 9.16302 5.20321 9.16302 5.5632V10.8533C9.16302 11.2133 8.87119 11.5052 8.5112 11.5052C8.15121 11.5052 7.85938 11.2133 7.85938 10.8533V5.5632ZM8.5112 5.15699C8.28685 5.15699 8.10499 5.33886 8.10499 5.5632V10.8533C8.10499 11.0777 8.28685 11.2596 8.5112 11.2596C8.73554 11.2596 8.91741 11.0777 8.91741 10.8533V5.5632C8.91741 5.33886 8.73554 5.15699 8.5112 5.15699Z" fill="#D82C15"/>
</svg>
