<svg width="14" height="15" viewBox="0 0 14 15" fill="none" xmlns="http://www.w3.org/2000/svg">
<path fill-rule="evenodd" clip-rule="evenodd" d="M7.44733 2.01248C7.26306 1.64395 6.73716 1.64395 6.5529 2.01248L1.17093 12.7764C1.00471 13.1089 1.24646 13.5 1.61815 13.5H12.3821C12.7538 13.5 12.9955 13.1089 12.8293 12.7764L7.44733 2.01248ZM5.65847 1.56526C6.21126 0.459692 7.78897 0.45969 8.34175 1.56526L13.7237 12.3292C14.2224 13.3265 13.4972 14.5 12.3821 14.5H1.61815C0.503074 14.5 -0.222171 13.3265 0.276505 12.3292L5.65847 1.56526Z" fill="#D82C15"/>
<path fill-rule="evenodd" clip-rule="evenodd" d="M7.09375 4.8125C7.50796 4.8125 7.84375 5.14829 7.84375 5.5625V9.3125C7.84375 9.72671 7.50796 10.0625 7.09375 10.0625C6.67954 10.0625 6.34375 9.72671 6.34375 9.3125V5.5625C6.34375 5.14829 6.67954 4.8125 7.09375 4.8125Z" fill="#D82C15"/>
<path d="M7.84375 11.6875C7.84375 12.1017 7.50796 12.4375 7.09375 12.4375C6.67954 12.4375 6.34375 12.1017 6.34375 11.6875C6.34375 11.2733 6.67954 10.9375 7.09375 10.9375C7.50796 10.9375 7.84375 11.2733 7.84375 11.6875Z" fill="#D82C15"/>
</svg>
