<svg width="14" height="14" viewBox="0 0 14 14" fill="none" xmlns="http://www.w3.org/2000/svg">
	<path d="M7 5.6875V7.875" stroke="#F18B14" stroke-width="0.875" stroke-linecap="round" stroke-linejoin="round"/>
	<path fill-rule="evenodd" clip-rule="evenodd" d="M6.99985 1.3125C6.76957 1.3125 6.54338 1.37334 6.34418 1.48886C6.14532 1.60417 5.9804 1.76988 5.86605 1.96928L5.86544 1.97033L1.05404 10.2809L1.05378 10.2814C0.938774 10.4806 0.878134 10.7065 0.87793 10.9365C0.877726 11.1665 0.937967 11.3925 1.05262 11.5919C1.16726 11.7913 1.3323 11.957 1.53118 12.0726C1.73006 12.1881 1.95581 12.2493 2.18581 12.2501L2.18735 12.2501H4.23031C4.24177 12.2342 4.25483 12.2189 4.26948 12.2043L5.09861 11.3751H2.18822C2.11179 11.3748 2.03678 11.3543 1.97068 11.316C1.90439 11.2774 1.84937 11.2222 1.81116 11.1557C1.77294 11.0893 1.75286 11.0139 1.75293 10.9373C1.753 10.8607 1.77315 10.7855 1.81137 10.7192L1.81155 10.7189L6.62378 2.40684L6.24516 2.18764L6.62488 2.40494C6.66268 2.33888 6.71727 2.28398 6.78312 2.24579C6.84897 2.20761 6.92373 2.1875 6.99985 2.1875C7.07596 2.1875 7.15073 2.20761 7.21658 2.24579C7.28242 2.28398 7.33701 2.33888 7.37482 2.40494L7.37481 2.40495L7.37591 2.40684L9.82928 6.64447L10.4696 6.00414L8.13425 1.97033L8.13365 1.96927C8.01929 1.76988 7.85437 1.60417 7.65552 1.48886C7.45631 1.37334 7.23012 1.3125 6.99985 1.3125Z" fill="#F18B14"/>
	<path fill-rule="evenodd" clip-rule="evenodd" d="M7.24054 9.23298L6.38923 10.0843C6.35988 10.0098 6.34375 9.92866 6.34375 9.84375C6.34375 9.48131 6.63756 9.1875 7 9.1875C7.08491 9.1875 7.16605 9.20363 7.24054 9.23298Z" fill="#F18B14"/>
	<path d="M8.90714 13.6927H7.23526C7.1559 13.6927 7.07979 13.6612 7.02368 13.605C6.96756 13.5489 6.93604 13.4728 6.93604 13.3935V11.7216C6.9359 11.6827 6.94343 11.6442 6.95819 11.6083C6.97295 11.5723 6.99466 11.5397 7.02206 11.5121L11.5104 7.02384C11.5382 6.99556 11.5714 6.97311 11.608 6.95779C11.6446 6.94246 11.6839 6.93457 11.7235 6.93457C11.7632 6.93457 11.8025 6.94246 11.8391 6.95779C11.8757 6.97311 11.9089 6.99556 11.9367 7.02384L13.6049 8.69198C13.6332 8.71983 13.6556 8.75301 13.6709 8.78961C13.6863 8.82621 13.6942 8.8655 13.6942 8.90518C13.6942 8.94486 13.6863 8.98414 13.6709 9.02074C13.6556 9.05734 13.6332 9.09053 13.6049 9.11837L9.1166 13.6067C9.08906 13.6341 9.05638 13.6558 9.02044 13.6705C8.9845 13.6853 8.946 13.6928 8.90714 13.6927V13.6927Z" stroke="#606375" stroke-width="0.598439" stroke-linecap="round" stroke-linejoin="round"/>
	<path d="M10.5249 8.00684L12.6194 10.1014" stroke="#606375" stroke-width="0.598439" stroke-linecap="round" stroke-linejoin="round"/>
</svg>
