<svg width="18" height="17" viewBox="0 0 18 17" fill="none" xmlns="http://www.w3.org/2000/svg">
<path fill-rule="evenodd" clip-rule="evenodd" d="M7 13C7.07681 13 7.15328 12.9986 7.22939 12.9957L7.14345 13.9986C7.09575 13.9995 7.04793 14 7 14C3.13401 14 0 10.866 0 7C0 3.13401 3.13401 0 7 0C10.2902 0 13.0502 2.27 13.7994 5.32931C13.4963 5.4581 13.2124 5.64606 12.9652 5.89322L12.9084 5.95C12.4119 3.13693 9.95551 1 7 1C3.68629 1 1 3.68629 1 7C1 10.3137 3.68629 13 7 13ZM14 6.97979C14 6.98652 14 6.99326 14 7C14 9.25076 12.9377 11.2534 11.2872 12.534L10.5735 11.8202C11.772 10.9302 12.6272 9.60378 12.9038 8.07596L14 6.97979ZM8.75792 12.7384C8.75758 12.7385 8.75724 12.7386 8.75691 12.7387L8.66592 13.8006C8.96642 13.7272 9.25933 13.6344 9.54323 13.5237L8.75792 12.7384Z" fill="#388E3C"/>
<path fill-rule="evenodd" clip-rule="evenodd" d="M10.307 4.30457C10.5249 4.4741 10.5642 4.78824 10.3947 5.00621L6.54695 9.95329L3.64645 7.05279C3.45118 6.85753 3.45118 6.54095 3.64645 6.34569C3.84171 6.15043 4.15829 6.15043 4.35355 6.34569L6.45305 8.44519L9.60532 4.39227C9.77486 4.1743 10.089 4.13503 10.307 4.30457Z" fill="#388E3C"/>
<path d="M8.56897 14.9479L8.80682 12.1722L11.3447 14.71L8.56897 14.9479Z" fill="#858585"/>
<path d="M16.5649 7.87547C17.0112 8.32179 17.0112 9.0454 16.5649 9.49172L12.0994 13.9573L9.56152 11.4194L14.0271 6.95388C14.4734 6.50756 15.197 6.50756 15.6433 6.95388L16.5649 7.87547Z" fill="#858585"/>
</svg>
