<svg width="14" height="14" viewBox="0 0 14 14" fill="none" xmlns="http://www.w3.org/2000/svg">
<path fill-rule="evenodd" clip-rule="evenodd" d="M7 13C10.3137 13 13 10.3137 13 7C13 3.68629 10.3137 1 7 1C3.68629 1 1 3.68629 1 7C1 10.3137 3.68629 13 7 13ZM7 14C10.866 14 14 10.866 14 7C14 3.13401 10.866 0 7 0C3.13401 0 0 3.13401 0 7C0 10.866 3.13401 14 7 14Z" fill="#388E3C"/>
<path fill-rule="evenodd" clip-rule="evenodd" d="M10.307 4.30554C10.5249 4.47508 10.5642 4.78922 10.3947 5.00719L6.54695 9.95427L3.64645 7.05377C3.45118 6.85851 3.45118 6.54193 3.64645 6.34666C3.84171 6.1514 4.15829 6.1514 4.35355 6.34666L6.45305 8.44617L9.60532 4.39325C9.77486 4.17527 10.089 4.13601 10.307 4.30554Z" fill="#388E3C"/>
</svg>
