<svg width="15" height="15" viewBox="0 0 15 15" fill="none" xmlns="http://www.w3.org/2000/svg">
<g clip-path="url(#clip0_196_14405)">
<path d="M2.2207 3.8418H3.38737H12.7207" stroke="#d81515" stroke-width="1.16667" stroke-linecap="round" stroke-linejoin="round"/>
<path d="M5.13721 3.84212V2.67546C5.13721 2.36604 5.26012 2.06929 5.47892 1.8505C5.69771 1.63171 5.99445 1.50879 6.30387 1.50879H8.63721C8.94663 1.50879 9.24337 1.63171 9.46216 1.8505C9.68096 2.06929 9.80387 2.36604 9.80387 2.67546V3.84212M11.5539 3.84212V12.0088C11.5539 12.3182 11.431 12.615 11.2122 12.8337C10.9934 13.0525 10.6966 13.1755 10.3872 13.1755H4.55387C4.24445 13.1755 3.94771 13.0525 3.72892 12.8337C3.51012 12.615 3.38721 12.3182 3.38721 12.0088V3.84212H11.5539Z" stroke="#d81515" stroke-width="1.16667" stroke-linecap="round" stroke-linejoin="round"/>
<path d="M6.3042 6.75879V10.2588" stroke="#d81515" stroke-width="1.16667" stroke-linecap="round" stroke-linejoin="round"/>
<path d="M8.63721 6.75879V10.2588" stroke="#d81515" stroke-width="1.16667" stroke-linecap="round" stroke-linejoin="round"/>
</g>
<defs>
<clipPath id="clip0_196_14405">
<rect width="14" height="14" fill="white" transform="translate(0.470703 0.341797)"/>
</clipPath>
</defs>
</svg>
