<svg width="20" height="21" viewBox="0 0 20 21" fill="none" xmlns="http://www.w3.org/2000/svg">
<path fill-rule="evenodd" clip-rule="evenodd" d="M10 19.0714C14.7339 19.0714 18.5714 15.2339 18.5714 10.5C18.5714 5.76613 14.7339 1.92857 10 1.92857C5.26613 1.92857 1.42857 5.76613 1.42857 10.5C1.42857 15.2339 5.26613 19.0714 10 19.0714ZM10 20.5C15.5228 20.5 20 16.0228 20 10.5C20 4.97715 15.5228 0.5 10 0.5C4.47715 0.5 0 4.97715 0 10.5C0 16.0228 4.47715 20.5 10 20.5Z" fill="white"/>
<path fill-rule="evenodd" clip-rule="evenodd" d="M6.54494 7.04396C6.69991 6.88899 6.95116 6.88899 7.10613 7.04396L13.4553 13.3932C13.6103 13.5481 13.6103 13.7994 13.4553 13.9544C13.3004 14.1093 13.0491 14.1093 12.8941 13.9544L6.54494 7.60516C6.38997 7.45019 6.38997 7.19893 6.54494 7.04396Z" fill="white" stroke="white" stroke-width="0.5" stroke-linecap="round" stroke-linejoin="round"/>
<path fill-rule="evenodd" clip-rule="evenodd" d="M13.4551 7.04396C13.3001 6.88899 13.0488 6.88899 12.8939 7.04396L6.54466 13.3932C6.38969 13.5481 6.38969 13.7994 6.54466 13.9544C6.69963 14.1093 6.95088 14.1093 7.10585 13.9544L13.4551 7.60516C13.61 7.45019 13.61 7.19893 13.4551 7.04396Z" fill="white" stroke="white" stroke-width="0.5" stroke-linecap="round" stroke-linejoin="round"/>
</svg>
