<svg width="10" height="12" viewBox="0 0 10 12" fill="none" xmlns="http://www.w3.org/2000/svg">
<path fill-rule="evenodd" clip-rule="evenodd" d="M0 1C0 0.447715 0.447715 0 1 0H5L10 3.5V11C10 11.5523 9.55229 12 9 12H1C0.447716 12 0 11.5523 0 11V1ZM2 5C2 4.72386 2.22386 4.5 2.5 4.5H7.5C7.77614 4.5 8 4.72386 8 5C8 5.27614 7.77614 5.5 7.5 5.5H2.5C2.22386 5.5 2 5.27614 2 5ZM2.5 6.75C2.22386 6.75 2 6.97386 2 7.25C2 7.52614 2.22386 7.75 2.5 7.75H7.5C7.77614 7.75 8 7.52614 8 7.25C8 6.97386 7.77614 6.75 7.5 6.75H2.5ZM2 9.5C2 9.22386 2.22386 9 2.5 9H7.5C7.77614 9 8 9.22386 8 9.5C8 9.77614 7.77614 10 7.5 10H2.5C2.22386 10 2 9.77614 2 9.5Z" fill="#1576AC"/>
</svg>

