<svg width="50" height="50" viewBox="0 0 50 50" fill="none" xmlns="http://www.w3.org/2000/svg">
<g opacity="0.15">
<path fill-rule="evenodd" clip-rule="evenodd" d="M4.16699 4.16667C4.16699 1.86548 6.03247 0 8.33366 0H25.0003L45.8337 14.5833V45.8333C45.8337 48.1345 43.9682 50 41.667 50H8.33366C6.03247 50 4.16699 48.1345 4.16699 45.8333V4.16667ZM12.5003 20.8333C12.5003 19.6827 13.4331 18.75 14.5837 18.75H35.417C36.5676 18.75 37.5003 19.6827 37.5003 20.8333C37.5003 21.9839 36.5676 22.9167 35.417 22.9167H14.5837C13.4331 22.9167 12.5003 21.9839 12.5003 20.8333ZM14.5837 28.125C13.4331 28.125 12.5003 29.0577 12.5003 30.2083C12.5003 31.3589 13.4331 32.2917 14.5837 32.2917H35.417C36.5676 32.2917 37.5003 31.3589 37.5003 30.2083C37.5003 29.0577 36.5676 28.125 35.417 28.125H14.5837ZM12.5003 39.5833C12.5003 38.4327 13.4331 37.5 14.5837 37.5H35.417C36.5676 37.5 37.5003 38.4327 37.5003 39.5833C37.5003 40.7339 36.5676 41.6667 35.417 41.6667H14.5837C13.4331 41.6667 12.5003 40.7339 12.5003 39.5833Z" fill="#1582D8"/>
</g>
</svg>
