<svg width="14" height="14" viewBox="0 0 14 14" fill="none" xmlns="http://www.w3.org/2000/svg">
<path d="M4.5 4.125C4.5 3.77982 4.77982 3.5 5.125 3.5C5.47018 3.5 5.75 3.77982 5.75 4.125V9.875C5.75 10.2202 5.47018 10.5 5.125 10.5C4.77982 10.5 4.5 10.2202 4.5 9.875V4.125Z" fill="#D26464"/>
<path d="M8.25 4.125C8.25 3.77982 8.52982 3.5 8.875 3.5C9.22018 3.5 9.5 3.77982 9.5 4.125V9.875C9.5 10.2202 9.22018 10.5 8.875 10.5C8.52982 10.5 8.25 10.2202 8.25 9.875V4.125Z" fill="#D26464"/>
<path fill-rule="evenodd" clip-rule="evenodd" d="M7 13C10.3137 13 13 10.3137 13 7C13 3.68629 10.3137 1 7 1C3.68629 1 1 3.68629 1 7C1 10.3137 3.68629 13 7 13ZM7 14C10.866 14 14 10.866 14 7C14 3.13401 10.866 0 7 0C3.13401 0 0 3.13401 0 7C0 10.866 3.13401 14 7 14Z" fill="#D26464"/>
</svg>
