<svg width="15" height="14" viewBox="0 0 15 14" fill="none" xmlns="http://www.w3.org/2000/svg">
<path d="M5.29536 11.8125H2.85083C2.7348 11.8125 2.62352 11.7664 2.54147 11.6843C2.45943 11.6023 2.41333 11.491 2.41333 11.375V8.93042C2.41313 8.87361 2.42414 8.81732 2.44572 8.76477C2.46731 8.71222 2.49904 8.66444 2.53911 8.62417L9.10161 2.06167C9.14232 2.02033 9.19085 1.98751 9.24436 1.9651C9.29788 1.94269 9.35532 1.93115 9.41333 1.93115C9.47135 1.93115 9.52879 1.94269 9.5823 1.9651C9.63582 1.98751 9.68434 2.02033 9.72505 2.06167L12.1641 4.50073C12.2055 4.54144 12.2383 4.58997 12.2607 4.64348C12.2831 4.697 12.2946 4.75443 12.2946 4.81245C12.2946 4.87047 12.2831 4.92791 12.2607 4.98142C12.2383 5.03494 12.2055 5.08346 12.1641 5.12417L5.60161 11.6867C5.56134 11.7267 5.51357 11.7585 5.46102 11.7801C5.40847 11.8016 5.35217 11.8127 5.29536 11.8125V11.8125Z" stroke="white" stroke-width="1.17" stroke-linecap="round" stroke-linejoin="round"/>
<path d="M7.66333 3.5L10.7258 6.5625" stroke="white" stroke-width="1.17" stroke-linecap="round" stroke-linejoin="round"/>
</svg>
