<svg width="14" height="14" viewBox="0 0 14 14" fill="none" xmlns="http://www.w3.org/2000/svg">
<path d="M7.875 1.27273C7.875 0.569819 7.48325 0 7 0C6.51675 0 6.125 0.569819 6.125 1.27273V12.7273C6.125 13.4302 6.51675 14 7 14C7.48325 14 7.875 13.4302 7.875 12.7273V1.27273Z" fill="#1582D8"/>
<path d="M1.27273 6.125C0.569819 6.125 1.7124e-08 6.51675 3.82475e-08 7C5.9371e-08 7.48325 0.56982 7.875 1.27273 7.875L12.7273 7.875C13.4302 7.875 14 7.48325 14 7C14 6.51675 13.4302 6.125 12.7273 6.125L1.27273 6.125Z" fill="#1582D8"/>
</svg>
