<svg width="20" height="20" viewBox="0 0 20 20" fill="none" xmlns="http://www.w3.org/2000/svg">
<path fill-rule="evenodd" clip-rule="evenodd" d="M10.473 1.82342C10.2098 1.29696 9.4585 1.29696 9.19527 1.82342L1.50675 17.2005C1.26928 17.6754 1.61463 18.2342 2.14562 18.2342H17.5227C18.0537 18.2342 18.399 17.6754 18.1615 17.2005L10.473 1.82342ZM7.91751 1.18454C8.70721 -0.394846 10.9611 -0.394849 11.7508 1.18454L19.4393 16.5616C20.1517 17.9864 19.1156 19.6628 17.5227 19.6628H2.14562C0.552661 19.6628 -0.483402 17.9864 0.228992 16.5616L7.91751 1.18454Z" fill="white"/>
<path fill-rule="evenodd" clip-rule="evenodd" d="M9.96763 5.82324C10.5594 5.82324 11.0391 6.30294 11.0391 6.89467V12.2518C11.0391 12.8435 10.5594 13.3232 9.96763 13.3232C9.3759 13.3232 8.89621 12.8435 8.89621 12.2518V6.89467C8.89621 6.30294 9.3759 5.82324 9.96763 5.82324Z" fill="white"/>
<path d="M11.0393 15.6447C11.0393 16.2364 10.5596 16.7161 9.96791 16.7161C9.37618 16.7161 8.89648 16.2364 8.89648 15.6447C8.89648 15.0529 9.37618 14.5732 9.96791 14.5732C10.5596 14.5732 11.0393 15.0529 11.0393 15.6447Z" fill="white"/>
</svg>
