<svg width="14" height="14" viewBox="0 0 14 14" fill="none" xmlns="http://www.w3.org/2000/svg">
<path d="M7.00049 5.6875V7.875" stroke="#F18B14" stroke-width="0.875" stroke-linecap="round" stroke-linejoin="round"/>
<path d="M6.24565 2.18764L1.43315 10.5001C1.35648 10.6329 1.31605 10.7835 1.31592 10.9369C1.31578 11.0902 1.35594 11.2409 1.43237 11.3738C1.50881 11.5067 1.61883 11.6172 1.75142 11.6943C1.884 11.7713 2.0345 11.8121 2.18784 11.8126H11.8128C11.9662 11.8121 12.1167 11.7713 12.2493 11.6943C12.3818 11.6172 12.4919 11.5067 12.5683 11.3738C12.6447 11.2409 12.6849 11.0902 12.6848 10.9369C12.6846 10.7835 12.6442 10.6329 12.5675 10.5001L7.75502 2.18764C7.67893 2.05468 7.56906 1.94418 7.43654 1.86732C7.30401 1.79047 7.15353 1.75 7.00034 1.75C6.84714 1.75 6.69666 1.79047 6.56414 1.86732C6.43161 1.94418 6.32174 2.05468 6.24565 2.18764V2.18764Z" stroke="#F18B14" stroke-width="0.875" stroke-linecap="round" stroke-linejoin="round"/>
<path d="M7.00049 10.5C7.36293 10.5 7.65674 10.2062 7.65674 9.84375C7.65674 9.48131 7.36293 9.1875 7.00049 9.1875C6.63805 9.1875 6.34424 9.48131 6.34424 9.84375C6.34424 10.2062 6.63805 10.5 7.00049 10.5Z" fill="#F18B14"/>
</svg>
