<svg width="18" height="18" viewBox="0 0 18 18" fill="none" xmlns="http://www.w3.org/2000/svg">
<path fill-rule="evenodd" clip-rule="evenodd" d="M6.97754 5.07617C7.39175 5.07617 7.72754 5.41196 7.72754 5.82617V9.57617C7.72754 9.99039 7.39175 10.3262 6.97754 10.3262C6.56333 10.3262 6.22754 9.99039 6.22754 9.57617V5.82617C6.22754 5.41196 6.56333 5.07617 6.97754 5.07617Z" fill="#F69A0E"/>
<path d="M7.72754 11.9512C7.72754 12.3654 7.39175 12.7012 6.97754 12.7012C6.56333 12.7012 6.22754 12.3654 6.22754 11.9512C6.22754 11.537 6.56333 11.2012 6.97754 11.2012C7.39175 11.2012 7.72754 11.537 7.72754 11.9512Z" fill="#F69A0E"/>
<path fill-rule="evenodd" clip-rule="evenodd" d="M12.4071 14.6554L13.7676 13.2949C13.773 13.0618 13.7232 12.8214 13.6077 12.5905L12.2039 9.78291L11.4586 10.5283L12.7133 13.0377C12.8795 13.3701 12.6377 13.7613 12.2661 13.7613L11.5129 13.7613L12.4071 14.6554ZM7.25046 13.7613L1.50213 13.7613C1.13043 13.7613 0.888686 13.3701 1.05491 13.0377L6.43688 2.27376C6.62114 1.90523 7.14704 1.90523 7.33131 2.27375L10.7515 9.11405L11.4968 8.36869L8.22573 1.82654C7.67295 0.720967 6.09524 0.72097 5.54245 1.82654L0.160484 12.5905C-0.338191 13.5878 0.387053 14.7613 1.50213 14.7613H7.16477L7.25046 13.7613ZM8.75596 13.7613L8.77144 13.7613L9.77144 14.7613H8.67027L8.75596 13.7613Z" fill="#F69A0E"/>
<path d="M8.56897 15.9498L8.80682 13.1741L11.3447 15.712L8.56897 15.9498Z" fill="#858585"/>
<path d="M16.5649 8.87938C17.0112 9.32569 17.0112 10.0493 16.5649 10.4956L12.0994 14.9612L9.56152 12.4233L14.0271 7.95778C14.4734 7.51147 15.197 7.51147 15.6433 7.95778L16.5649 8.87938Z" fill="#858585"/>
</svg>
